<?xml version="1.0" encoding="iso-8859-1"?>
<!-- Uploaded to: SVG Repo, www.svgrepo.com, Generator: SVG Repo Mixer Tools -->
<!DOCTYPE svg PUBLIC "-//W3C//DTD SVG 1.1//EN" "http://www.w3.org/Graphics/SVG/1.1/DTD/svg11.dtd">
<svg fill="#000000" version="1.1" id="Capa_1" xmlns="http://www.w3.org/2000/svg" xmlns:xlink="http://www.w3.org/1999/xlink" 
	 width="800px" height="800px" viewBox="0 0 31.246 31.246"
	 xml:space="preserve">
<g>
	<path d="M31.246,3.854V1.691H0v2.162h4.739v7.042l0.399,0.118c-1.113,1.841-1.756,3.997-1.756,6.301
		c0,2.628,0.835,5.062,2.248,7.059c0.188,0.264,0.383,0.521,0.588,0.769c1.479,1.772,3.447,3.118,5.695,3.835
		c0.046,0.015,0.092,0.029,0.138,0.044c0.33,0.101,0.668,0.188,1.009,0.261c0.071,0.016,0.142,0.029,0.212,0.043
		c0.334,0.064,0.671,0.117,1.013,0.155c0.079,0.008,0.159,0.014,0.238,0.021c0.34,0.03,0.683,0.051,1.028,0.053
		c0.013,0,0.029,0.002,0.042,0.002c0.002,0,0.006,0,0.009,0c0.006,0,0.01,0,0.016,0c0.001,0,0.002,0,0.004,0h0.001l0,0
		c0.003,0,0.006,0,0.008,0c0.268,0,0.533-0.012,0.797-0.028c0.082-0.006,0.163-0.015,0.245-0.021
		c0.188-0.017,0.377-0.037,0.563-0.061c0.084-0.012,0.171-0.023,0.255-0.036c0.196-0.03,0.396-0.067,0.588-0.106
		c0.062-0.012,0.123-0.022,0.185-0.037c0.53-0.117,1.047-0.27,1.551-0.452c0.021-0.008,0.043-0.017,0.063-0.024
		c0.239-0.089,0.478-0.187,0.709-0.291c0.015-0.006,0.028-0.013,0.041-0.019c1.71-0.771,3.214-1.915,4.401-3.338
		c0.203-0.249,0.397-0.505,0.586-0.771c1.414-1.996,2.248-4.431,2.248-7.059c0-1.491-0.277-2.918-0.768-4.24h3.512V8.848H29.84
		V3.854H31.246z M23.822,24.967c-0.081,0.089-0.164,0.174-0.248,0.26c-0.09,0.091-0.182,0.178-0.276,0.268
		c-0.073,0.068-0.146,0.139-0.222,0.207c-0.164,0.147-0.333,0.291-0.506,0.428c-0.057,0.045-0.117,0.086-0.176,0.131
		c-0.129,0.1-0.261,0.195-0.394,0.289c-0.076,0.054-0.155,0.105-0.233,0.158c-0.121,0.079-0.244,0.155-0.369,0.231
		c-0.08,0.048-0.16,0.097-0.242,0.144c-0.141,0.082-0.285,0.157-0.43,0.231c-0.065,0.033-0.131,0.071-0.197,0.103
		c-0.203,0.101-0.411,0.193-0.623,0.281c-0.077,0.033-0.156,0.061-0.233,0.092c-0.146,0.055-0.289,0.11-0.437,0.16
		c-0.039,0.014-0.078,0.025-0.118,0.039c1.141-1.09,2.087-2.691,2.737-4.617c0.768,0.284,1.467,0.625,2.084,1.002v0.038h0.065
		c0.065,0.041,0.138,0.08,0.2,0.123c-0.059,0.069-0.118,0.138-0.18,0.206C23.96,24.816,23.893,24.894,23.822,24.967z M11.287,27.676
		c-0.033-0.015-0.065-0.03-0.098-0.045c-0.268-0.115-0.53-0.244-0.786-0.379c-0.078-0.041-0.155-0.084-0.232-0.127
		c-0.242-0.135-0.479-0.278-0.711-0.433c-0.04-0.026-0.082-0.05-0.122-0.077c-0.266-0.182-0.523-0.375-0.772-0.578
		c-0.058-0.048-0.113-0.097-0.17-0.145c-0.205-0.174-0.403-0.354-0.595-0.541c-0.047-0.045-0.095-0.09-0.14-0.135
		c-0.217-0.219-0.424-0.448-0.622-0.685c0.668-0.437,1.442-0.823,2.301-1.146c0.642,1.896,1.57,3.475,2.691,4.562
		C11.78,27.863,11.529,27.778,11.287,27.676z M23.188,21.869l0.326,0.325v0.832c-0.435-0.216-0.892-0.417-1.375-0.595
		c0.342-1.256,0.562-2.625,0.633-4.065l0.108,0.011l-0.093,0.941l0.785,1.387l-0.413,0.791L23.188,21.869z M5.78,13.827v0.886
		l0.447,0.762l0.362,0.055l0.048-0.261l-0.429-0.661l-0.083-0.643h0.251l0.105,0.661l0.62,0.903L6.94,15.821l0.395,0.601
		l0.977,0.244v-0.16l0.098,0.016c-0.009,0.23-0.024,0.457-0.025,0.691H4.429c0.019-1.504,0.329-2.939,0.888-4.249v0.638L5.78,13.827
		z M26.064,13.306c0.113,0.291,0.215,0.587,0.304,0.887l-0.062,0.058H25.41l-0.543-0.405L24.295,13.9v0.35h-0.182l-0.196-0.139
		l-0.991-0.252v-0.642l-0.537,0.042c-0.068-0.329-0.146-0.653-0.229-0.969l0.247,0.05l0.354-0.321l0.067,0.252l0.873,0.591
		l-0.104,0.143l-0.396-0.022l0.152,0.217l0.242,0.052l0.283-0.119l-0.002-0.342l0.125-0.062L23.9,12.622l-0.584-0.325l-0.152-0.433
		h0.486l0.152,0.154l0.42,0.359l0.016,0.435l0.434,0.461l0.163-0.631l0.297-0.165l0.058,0.517l0.293,0.322L26.064,13.306z
		 M25.527,12.839v-0.495l0.072-0.078c0.092,0.179,0.18,0.363,0.262,0.548l-0.116-0.004L25.527,12.839z M20.157,12.786l0.054,0.362
		l0.311,0.145l0.521-0.002l0.323-0.03c0.015,0.066,0.031,0.127,0.044,0.193l-0.128,0.069h-0.499L20.536,13.5l-0.604,0.336v0.634
		l-1.24,0.893l0.104,0.38h0.251l-0.064,0.364l-0.176,0.065l-0.011,0.951l0.079,0.09h-2.748v-3.271l3.043-0.953
		C19.504,12.928,19.834,12.861,20.157,12.786z M15.108,18.527l-0.178-0.311h0.19v0.502L15.108,18.527z M10.23,16.498l-0.652-0.111
		l0.262-0.494l-0.075-0.284l-0.316,0.21c0.038-0.496,0.097-0.979,0.17-1.454h0.979l-0.004,0.403l0.475,0.221L11.032,14.3
		l0.342-0.344l0.69-0.453l0.048-0.32l0.089-0.093l2.921,0.858v3.265h-2.623l-0.053-0.072L11.758,17l-0.182,0.213h-1.299
		L10.23,16.498z M8.426,16.123l-0.057-0.007l-0.191-0.421l0.116-0.433l0.252-0.463C8.492,15.233,8.452,15.674,8.426,16.123z
		 M9.396,17.015l0.052,0.014l0.161,0.185H9.39C9.39,17.145,9.396,17.082,9.396,17.015z M11.019,18.217l0.04,0.34l-0.585,0.408
		l-0.028,0.625l-0.084,0.379l0.847,1.063l0.064,0.363c0,0,0.309,0.083,0.346,0.083c0.015,0,0.146,0.092,0.286,0.195
		c-0.661,0.125-1.306,0.272-1.912,0.459c-0.315-1.203-0.52-2.524-0.584-3.916H11.019z M12.307,22.609v1.28l0.232,0.065l-0.158,0.883
		l0.392,0.521L12.7,26.235l0.518,0.908l0.661,0.58l0.669,0.013l0.064-0.214l-0.49-0.413l0.029-0.205l0.088-0.25l0.018-0.257
		l-0.33-0.009l-0.167-0.211l0.273-0.264l0.038-0.201l-0.307-0.088l0.018-0.186l0.438-0.066l0.666-0.32l0.224-0.409l0.013-0.017
		v3.889c-2.061-0.282-3.841-2.397-4.85-5.441C10.913,22.883,11.598,22.73,12.307,22.609z M16.125,22.687l0.379,0.012l0.408-0.321
		c1.434,0.09,2.789,0.32,4.007,0.685c-0.997,3.022-2.757,5.131-4.794,5.446V22.687z M17.038,21.379l0.039-0.369l0.479-0.61
		l0.084-0.392l-0.438-0.141l-0.289-0.474l-0.789-0.009v-1.168h3.631l0.109,0.125h0.465l0.027-0.073h0.838l0.055-0.05h0.525
		c-0.061,1.383-0.262,2.699-0.576,3.897C19.927,21.73,18.521,21.481,17.038,21.379z M26.488,14.816l0.033-0.042
		c0.016,0.064,0.03,0.127,0.045,0.19L26.488,14.816z M4.467,18.217h3.938c0.064,1.504,0.293,2.931,0.65,4.235
		c-0.969,0.363-1.843,0.804-2.602,1.31C5.334,22.168,4.624,20.27,4.467,18.217z M28.174,8.848h-1.152v4.027
		c-0.309-0.787-0.697-1.53-1.152-2.23V3.854h2.306L28.174,8.848L28.174,8.848z"/>
</g>
</svg>